<svg width="441" height="367" viewBox="0 0 441 367" fill="none" xmlns="http://www.w3.org/2000/svg">
<g clip-path="url(#clip0_1_2)">
<path d="M19.02 366.02H2.47V327.64H18.31C26.34 327.64 30.79 331.82 30.79 337.54C30.79 342.21 27.99 345.13 24.25 346.34C28.59 347.11 31.67 351.12 31.67 355.63C31.67 361.73 27 366.02 19.02 366.02ZM17.21 333.85H10.17V343.47H17.21C20.84 343.47 22.93 341.82 22.93 338.68C22.93 335.54 20.84 333.84 17.21 333.84V333.85ZM17.76 349.41H10.17V359.75H17.92C21.66 359.75 23.86 357.94 23.86 354.69C23.86 351.44 21.5 349.41 17.76 349.41Z" fill="#A9B489"/>
<path d="M106.85 333.85H92.28V343.47H105.2V349.57H92.28V359.74H106.85V366.01H84.58V327.57H106.85V333.84V333.85Z" fill="#A9B489"/>
<path d="M184.13 358.71H168.84L166.31 366.02H158.23L172.03 327.58H180.99L194.79 366.02H186.65L184.12 358.71H184.13ZM176.49 336.49L170.94 352.55H182.05L176.5 336.49H176.49Z" fill="#A9B489"/>
<path d="M246.61 327.64H254.31V351.4C254.31 356.68 257.17 359.43 262.06 359.43C266.95 359.43 269.87 356.68 269.87 351.4V327.64H277.62V351.34C277.62 361.46 270.36 366.41 261.95 366.41C253.54 366.41 246.61 361.46 246.61 351.34V327.64Z" fill="#A9B489"/>
<path d="M329.77 327.64H357.93V333.85H347.7V366.02H340V333.85H329.77V327.64Z" fill="#A9B489"/>
<path d="M407.1 327.64H415.79L424.04 345.18L432.23 327.64H440.81L427.83 352.66V366.02H420.13V352.66L407.1 327.64Z" fill="#A9B489"/>
<path d="M223.84 0V272.88H197.34L24.12 38.76V272.89H0V0H26.1L199.32 234.13V0H223.84Z" fill="#A9B489"/>
<path d="M357.09 0H204.59V22.94H356.7C389.92 22.94 415.23 48.25 415.23 82.26C415.23 116.27 389.92 141.98 356.7 141.98H273.25V50.49H249.13V272.88H273.25V164.91H357.09C404.55 164.91 440.14 129.32 440.14 82.25C440.14 35.18 404.55 0 357.09 0Z" fill="#A9B489"/>
</g>
<defs>
<clipPath id="clip0_1_2">
<rect width="440.81" height="366.41" fill="white"/>
</clipPath>
</defs>
</svg>
