<svg width="408mm" height="234mm" version="1.1" viewBox="0 0 408 234" xmlns="http://www.w3.org/2000/svg" xmlns:xlink="http://www.w3.org/1999/xlink">
 <defs><pattern id="c" patternTransform="matrix(-.374-1.95 21.7-4.18 134.6 78.2)" xlink:href="#a"/><pattern id="a" patternTransform="matrix(-.37-1.95 21.7-4.18 127.6 129.6)" xlink:href="#d"/><pattern id="d" width="3" height="1" patternUnits="userSpaceOnUse"><rect width="1" height="2"/></pattern></defs>
 <path id="b" d="m163 73-4 .7-13.8-37.7 15-3.5" fill="url(#c)"/><use transform="rotate(17 132 288)" xlink:href="#b"/><path d="m338 199-28-40m-94 40 28-40m7-10h52m25-46 48-15m-51 5l48-15m-309 8l42 24 56-33 62 20m38-27-38 27l20 62h66l20-62-38-27" fill="none" stroke="#000" stroke-width="3"/>
 <g font-family="Arial" font-size="39px" text-anchor="middle"><text x="278" y="73">O</text><text x="134" y="33">HO</text><text x="362" y="231">OH</text><text x="226" y="49">H</text><text x="392" y="92">O</text><text x="197" y="231">HO</text><text x="33" y="92">HO</text></g></svg>